<mxfile host="65bd71144e">
    <diagram id="LVGge15FIt286Ib3Fg0K" name="Page-1">
        <mxGraphModel dx="1020" dy="860" grid="0" gridSize="10" guides="1" tooltips="1" connect="1" arrows="1" fold="1" page="0" pageScale="1" pageWidth="827" pageHeight="1169" math="0" shadow="0">
            <root>
                <mxCell id="0"/>
                <mxCell id="1" parent="0"/>
                <mxCell id="4" value="Exercise Loop" style="shape=umlLifeline;perimeter=lifelinePerimeter;whiteSpace=wrap;html=1;container=1;collapsible=0;recursiveResize=0;outlineConnect=0;" parent="1" vertex="1">
                    <mxGeometry x="92" y="-296" width="160" height="709" as="geometry"/>
                </mxCell>
                <mxCell id="8" value="" style="html=1;points=[];perimeter=orthogonalPerimeter;" parent="4" vertex="1">
                    <mxGeometry x="74" y="223" width="10" height="486" as="geometry"/>
                </mxCell>
                <mxCell id="26" value="Is next key available?" style="text;html=1;strokeColor=none;fillColor=none;align=center;verticalAlign=middle;whiteSpace=wrap;rounded=0;comic=1;" parent="4" vertex="1">
                    <mxGeometry x="92.5" y="50" width="60" height="30" as="geometry"/>
                </mxCell>
                <mxCell id="32" value="Is iteration available?" style="text;html=1;strokeColor=none;fillColor=none;align=center;verticalAlign=middle;whiteSpace=wrap;rounded=0;comic=1;" parent="4" vertex="1">
                    <mxGeometry x="92.5" y="151" width="60" height="30" as="geometry"/>
                </mxCell>
                <mxCell id="34" value="&lt;font style=&quot;font-size: 9px;&quot;&gt;Yes&lt;/font&gt;" style="text;html=1;align=center;verticalAlign=middle;resizable=0;points=[];autosize=1;strokeColor=none;fillColor=none;" parent="4" vertex="1">
                    <mxGeometry x="124" y="102" width="33" height="26" as="geometry"/>
                </mxCell>
                <mxCell id="39" value="&lt;font style=&quot;font-size: 9px;&quot;&gt;Yes&lt;/font&gt;" style="text;html=1;align=center;verticalAlign=middle;resizable=0;points=[];autosize=1;strokeColor=none;fillColor=none;" parent="4" vertex="1">
                    <mxGeometry x="124" y="189" width="33" height="26" as="geometry"/>
                </mxCell>
                <mxCell id="41" value="&lt;font style=&quot;font-size: 9px;&quot;&gt;No&lt;br&gt;&lt;/font&gt;" style="text;html=1;align=center;verticalAlign=middle;resizable=0;points=[];autosize=1;strokeColor=none;fillColor=none;" parent="4" vertex="1">
                    <mxGeometry x="23" y="128" width="30" height="26" as="geometry"/>
                </mxCell>
                <mxCell id="40" style="edgeStyle=none;html=1;exitX=0;exitY=0.5;exitDx=0;exitDy=0;fontSize=12;" parent="4" source="32" target="4" edge="1">
                    <mxGeometry relative="1" as="geometry">
                        <mxPoint x="-35" y="58" as="targetPoint"/>
                        <Array as="points">
                            <mxPoint x="-2" y="166"/>
                            <mxPoint x="-2" y="65"/>
                        </Array>
                    </mxGeometry>
                </mxCell>
                <mxCell id="42" value="Iteration" style="text;html=1;strokeColor=none;fillColor=none;align=center;verticalAlign=middle;whiteSpace=wrap;rounded=0;fontSize=12;" parent="4" vertex="1">
                    <mxGeometry x="-14" y="413.5" width="83" height="30" as="geometry"/>
                </mxCell>
                <mxCell id="48" value="&lt;font style=&quot;font-size: 12px;&quot;&gt;Get next key&lt;/font&gt;" style="whiteSpace=wrap;html=1;fontSize=9;" parent="4" vertex="1">
                    <mxGeometry x="87" y="100" width="71" height="28" as="geometry"/>
                </mxCell>
                <mxCell id="33" style="edgeStyle=none;html=1;exitX=0.5;exitY=1;exitDx=0;exitDy=0;entryX=0.5;entryY=0;entryDx=0;entryDy=0;" parent="4" source="26" target="48" edge="1">
                    <mxGeometry relative="1" as="geometry"/>
                </mxCell>
                <mxCell id="49" style="edgeStyle=none;html=1;exitX=0.5;exitY=1;exitDx=0;exitDy=0;entryX=0.5;entryY=0;entryDx=0;entryDy=0;fontSize=12;" parent="4" source="48" target="32" edge="1">
                    <mxGeometry relative="1" as="geometry"/>
                </mxCell>
                <mxCell id="51" value="&lt;font style=&quot;font-size: 9px;&quot;&gt;Yes&lt;/font&gt;" style="text;html=1;align=center;verticalAlign=middle;resizable=0;points=[];autosize=1;strokeColor=none;fillColor=none;" parent="4" vertex="1">
                    <mxGeometry x="127" y="76" width="33" height="26" as="geometry"/>
                </mxCell>
                <mxCell id="47" style="edgeStyle=none;html=1;exitX=1;exitY=0.25;exitDx=0;exitDy=0;fontSize=12;entryX=1;entryY=0.5;entryDx=0;entryDy=0;" parent="1" source="5" target="32" edge="1">
                    <mxGeometry relative="1" as="geometry">
                        <mxPoint x="453" y="-135" as="targetPoint"/>
                        <mxPoint x="469" y="27.110000000000014" as="sourcePoint"/>
                        <Array as="points">
                            <mxPoint x="492" y="-56"/>
                            <mxPoint x="492" y="-130"/>
                        </Array>
                    </mxGeometry>
                </mxCell>
                <mxCell id="5" value="Get values pair,&#10;print it and waitÂ &#10;pressing &quot;TO CHORDS&#10;or &quot;NEXT&quot; button" style="rounded=1;dashed=0;point=[];connectable=1;arcSize=0;perimeter=rectanglePerimeter;" parent="1" vertex="1">
                    <mxGeometry x="176" y="-73" width="150.25" height="67" as="geometry"/>
                </mxCell>
                <mxCell id="24" value="" style="endArrow=classic;html=1;entryX=0.5;entryY=0;entryDx=0;entryDy=0;exitX=1;exitY=0.75;exitDx=0;exitDy=0;" parent="1" source="5" edge="1">
                    <mxGeometry width="50" height="50" relative="1" as="geometry">
                        <mxPoint x="326" y="-59" as="sourcePoint"/>
                        <mxPoint x="362.25" y="74" as="targetPoint"/>
                        <Array as="points">
                            <mxPoint x="362" y="-23"/>
                        </Array>
                    </mxGeometry>
                </mxCell>
                <mxCell id="35" style="edgeStyle=none;html=1;fontSize=9;exitX=1;exitY=0.5;exitDx=0;exitDy=0;" parent="1" source="26" edge="1">
                    <mxGeometry relative="1" as="geometry">
                        <mxPoint x="420.0832824707031" y="-232.83333333333326" as="targetPoint"/>
                        <mxPoint x="264" y="-229" as="sourcePoint"/>
                    </mxGeometry>
                </mxCell>
                <mxCell id="36" value="&lt;font style=&quot;font-size: 12px;&quot;&gt;Exit from loop&lt;/font&gt;" style="whiteSpace=wrap;html=1;fontSize=9;" parent="1" vertex="1">
                    <mxGeometry x="421" y="-248" width="89" height="28" as="geometry"/>
                </mxCell>
                <mxCell id="37" value="&lt;font style=&quot;font-size: 9px;&quot;&gt;No&lt;br&gt;&lt;/font&gt;" style="text;html=1;align=center;verticalAlign=middle;resizable=0;points=[];autosize=1;strokeColor=none;fillColor=none;" parent="1" vertex="1">
                    <mxGeometry x="317" y="-264" width="30" height="26" as="geometry"/>
                </mxCell>
                <mxCell id="38" style="edgeStyle=none;html=1;exitX=0.5;exitY=1;exitDx=0;exitDy=0;fontSize=12;" parent="1" source="32" edge="1">
                    <mxGeometry relative="1" as="geometry">
                        <mxPoint x="215" y="-73" as="targetPoint"/>
                    </mxGeometry>
                </mxCell>
                <mxCell id="45" value="&lt;font style=&quot;font-size: 9px;&quot;&gt;Case &quot;TO CHORDS&quot;&lt;/font&gt;" style="text;html=1;align=center;verticalAlign=middle;resizable=0;points=[];autosize=1;strokeColor=none;fillColor=none;" parent="1" vertex="1">
                    <mxGeometry x="252" y="7" width="102" height="26" as="geometry"/>
                </mxCell>
                <mxCell id="46" value="&lt;font style=&quot;font-size: 9px;&quot;&gt;Case &quot;NEXT&quot;&lt;/font&gt;" style="text;html=1;align=center;verticalAlign=middle;resizable=0;points=[];autosize=1;strokeColor=none;fillColor=none;" parent="1" vertex="1">
                    <mxGeometry x="496" y="-105" width="72" height="26" as="geometry"/>
                </mxCell>
                <mxCell id="56" value="" style="html=1;points=[];perimeter=orthogonalPerimeter;" parent="1" vertex="1">
                    <mxGeometry x="297" y="57" width="10" height="360" as="geometry"/>
                </mxCell>
                <mxCell id="60" style="edgeStyle=none;html=1;exitX=1;exitY=0.5;exitDx=0;exitDy=0;fontSize=12;entryX=0.5;entryY=0;entryDx=0;entryDy=0;" parent="1" source="59" target="63" edge="1">
                    <mxGeometry relative="1" as="geometry">
                        <mxPoint x="365" y="110" as="targetPoint"/>
                        <Array as="points">
                            <mxPoint x="434" y="73"/>
                        </Array>
                    </mxGeometry>
                </mxCell>
                <mxCell id="59" value="&lt;font style=&quot;font-size: 12px;&quot;&gt;Start chords processing loop&lt;/font&gt;" style="whiteSpace=wrap;html=1;fontSize=9;" parent="1" vertex="1">
                    <mxGeometry x="307" y="57" width="110.5" height="31" as="geometry"/>
                </mxCell>
                <mxCell id="61" value="&lt;font size=&quot;1&quot;&gt;Yes&lt;br&gt;&lt;/font&gt;" style="text;html=1;align=center;verticalAlign=middle;resizable=0;points=[];autosize=1;strokeColor=none;fillColor=none;" parent="1" vertex="1">
                    <mxGeometry x="451" y="151.5" width="34" height="26" as="geometry"/>
                </mxCell>
                <mxCell id="76" style="edgeStyle=none;html=1;exitX=1;exitY=0.5;exitDx=0;exitDy=0;fontSize=12;endArrow=classic;endFill=1;entryX=0.5;entryY=1;entryDx=0;entryDy=0;" parent="1" source="62" target="77" edge="1">
                    <mxGeometry relative="1" as="geometry">
                        <mxPoint x="578" y="309.5" as="targetPoint"/>
                        <Array as="points">
                            <mxPoint x="579" y="327.5"/>
                        </Array>
                    </mxGeometry>
                </mxCell>
                <mxCell id="85" style="edgeStyle=none;html=1;exitX=0.5;exitY=1;exitDx=0;exitDy=0;entryX=0.5;entryY=0;entryDx=0;entryDy=0;fontSize=12;endArrow=classic;endFill=1;" parent="1" source="62" target="84" edge="1">
                    <mxGeometry relative="1" as="geometry"/>
                </mxCell>
                <mxCell id="62" value="&lt;span style=&quot;&quot;&gt;Did it hear the right chord?&lt;/span&gt;" style="text;html=1;strokeColor=none;fillColor=none;align=center;verticalAlign=middle;whiteSpace=wrap;rounded=0;comic=1;" parent="1" vertex="1">
                    <mxGeometry x="397" y="304" width="72" height="47" as="geometry"/>
                </mxCell>
                <mxCell id="65" style="edgeStyle=none;html=1;exitX=0.5;exitY=1;exitDx=0;exitDy=0;entryX=0.5;entryY=0;entryDx=0;entryDy=0;fontSize=12;" parent="1" source="63" target="64" edge="1">
                    <mxGeometry relative="1" as="geometry"/>
                </mxCell>
                <mxCell id="67" style="edgeStyle=none;html=1;exitX=1;exitY=0.5;exitDx=0;exitDy=0;fontSize=12;endArrow=none;endFill=0;" parent="1" source="63" edge="1">
                    <mxGeometry relative="1" as="geometry">
                        <mxPoint x="466" y="-130" as="targetPoint"/>
                        <Array as="points">
                            <mxPoint x="599" y="132"/>
                            <mxPoint x="599" y="-130"/>
                        </Array>
                    </mxGeometry>
                </mxCell>
                <mxCell id="63" value="&lt;span style=&quot;&quot;&gt;Is next chord available?&lt;/span&gt;" style="text;html=1;strokeColor=none;fillColor=none;align=center;verticalAlign=middle;whiteSpace=wrap;rounded=0;comic=1;" parent="1" vertex="1">
                    <mxGeometry x="397" y="107" width="72" height="47" as="geometry"/>
                </mxCell>
                <mxCell id="72" style="edgeStyle=none;html=1;exitX=0.5;exitY=1;exitDx=0;exitDy=0;entryX=0.5;entryY=0;entryDx=0;entryDy=0;fontSize=12;endArrow=classic;endFill=1;" parent="1" source="64" target="71" edge="1">
                    <mxGeometry relative="1" as="geometry"/>
                </mxCell>
                <mxCell id="64" value="&lt;font style=&quot;font-size: 12px;&quot;&gt;Print next chord's name&lt;/font&gt;" style="whiteSpace=wrap;html=1;fontSize=9;" parent="1" vertex="1">
                    <mxGeometry x="377.75" y="187.5" width="110.5" height="31" as="geometry"/>
                </mxCell>
                <mxCell id="66" value="&lt;font style=&quot;font-size: 9px;&quot;&gt;No&lt;br&gt;&lt;/font&gt;" style="text;html=1;align=center;verticalAlign=middle;resizable=0;points=[];autosize=1;strokeColor=none;fillColor=none;" parent="1" vertex="1">
                    <mxGeometry x="524" y="107" width="30" height="26" as="geometry"/>
                </mxCell>
                <mxCell id="74" style="edgeStyle=none;html=1;exitX=0.5;exitY=1;exitDx=0;exitDy=0;entryX=0.5;entryY=0;entryDx=0;entryDy=0;fontSize=12;endArrow=classic;endFill=1;" parent="1" source="71" target="62" edge="1">
                    <mxGeometry relative="1" as="geometry"/>
                </mxCell>
                <mxCell id="71" value="&lt;font style=&quot;font-size: 12px;&quot;&gt;Hearing&lt;/font&gt;" style="whiteSpace=wrap;html=1;fontSize=9;rounded=1;" parent="1" vertex="1">
                    <mxGeometry x="377.75" y="245.5" width="110.5" height="31" as="geometry"/>
                </mxCell>
                <mxCell id="75" value="&lt;font style=&quot;font-size: 9px;&quot;&gt;No&lt;br&gt;&lt;/font&gt;" style="text;html=1;align=center;verticalAlign=middle;resizable=0;points=[];autosize=1;strokeColor=none;fillColor=none;" parent="1" vertex="1">
                    <mxGeometry x="475" y="289.5" width="30" height="26" as="geometry"/>
                </mxCell>
                <mxCell id="78" style="edgeStyle=none;html=1;exitX=0;exitY=0.5;exitDx=0;exitDy=0;entryX=1;entryY=0.75;entryDx=0;entryDy=0;fontSize=12;endArrow=classic;endFill=1;" parent="1" source="77" target="71" edge="1">
                    <mxGeometry relative="1" as="geometry"/>
                </mxCell>
                <mxCell id="82" style="edgeStyle=none;html=1;exitX=0.5;exitY=0;exitDx=0;exitDy=0;fontSize=12;endArrow=classic;endFill=1;entryX=0;entryY=0.5;entryDx=0;entryDy=0;" parent="1" source="77" target="63" edge="1">
                    <mxGeometry relative="1" as="geometry">
                        <mxPoint x="341" y="150" as="targetPoint"/>
                        <Array as="points">
                            <mxPoint x="579" y="152"/>
                            <mxPoint x="371" y="150"/>
                            <mxPoint x="371" y="131"/>
                        </Array>
                    </mxGeometry>
                </mxCell>
                <mxCell id="77" value="&lt;span style=&quot;&quot;&gt;Is button &quot;SKIP&quot; pressed?&lt;/span&gt;" style="text;html=1;strokeColor=none;fillColor=none;align=center;verticalAlign=middle;whiteSpace=wrap;rounded=0;comic=1;" parent="1" vertex="1">
                    <mxGeometry x="543" y="245.5" width="72" height="47" as="geometry"/>
                </mxCell>
                <mxCell id="80" value="&lt;font style=&quot;font-size: 9px;&quot;&gt;No&lt;br&gt;&lt;/font&gt;" style="text;html=1;align=center;verticalAlign=middle;resizable=0;points=[];autosize=1;strokeColor=none;fillColor=none;" parent="1" vertex="1">
                    <mxGeometry x="505" y="238.5" width="30" height="26" as="geometry"/>
                </mxCell>
                <mxCell id="81" value="&lt;font size=&quot;1&quot;&gt;Yes&lt;br&gt;&lt;/font&gt;" style="text;html=1;align=center;verticalAlign=middle;resizable=0;points=[];autosize=1;strokeColor=none;fillColor=none;" parent="1" vertex="1">
                    <mxGeometry x="581" y="190" width="34" height="26" as="geometry"/>
                </mxCell>
                <mxCell id="83" value="&lt;font size=&quot;1&quot;&gt;Yes&lt;br&gt;&lt;/font&gt;" style="text;html=1;align=center;verticalAlign=middle;resizable=0;points=[];autosize=1;strokeColor=none;fillColor=none;" parent="1" vertex="1">
                    <mxGeometry x="444" y="356" width="34" height="26" as="geometry"/>
                </mxCell>
                <mxCell id="86" style="edgeStyle=none;html=1;exitX=0;exitY=0.5;exitDx=0;exitDy=0;fontSize=12;endArrow=none;endFill=0;" parent="1" source="84" edge="1">
                    <mxGeometry relative="1" as="geometry">
                        <mxPoint x="392" y="130" as="targetPoint"/>
                        <Array as="points">
                            <mxPoint x="340" y="408"/>
                            <mxPoint x="342" y="131"/>
                        </Array>
                    </mxGeometry>
                </mxCell>
                <mxCell id="84" value="&lt;font style=&quot;font-size: 12px;&quot;&gt;SUCCESS&lt;/font&gt;" style="whiteSpace=wrap;html=1;fontSize=9;" parent="1" vertex="1">
                    <mxGeometry x="377.75" y="392" width="110.5" height="31" as="geometry"/>
                </mxCell>
                <mxCell id="89" value="&lt;font style=&quot;font-size: 8px;&quot;&gt;Iter++&lt;/font&gt;" style="whiteSpace=wrap;html=1;fontSize=9;" parent="1" vertex="1">
                    <mxGeometry x="349.25" y="-164" width="26" height="28" as="geometry"/>
                </mxCell>
                <mxCell id="90" value="Chord sub-iteration" style="text;html=1;strokeColor=none;fillColor=none;align=center;verticalAlign=middle;whiteSpace=wrap;rounded=0;fontSize=12;" parent="1" vertex="1">
                    <mxGeometry x="216" y="216" width="83" height="30" as="geometry"/>
                </mxCell>
            </root>
        </mxGraphModel>
    </diagram>
</mxfile>